<svg xmlns="http://www.w3.org/2000/svg" width="87.188" height="46.477" viewBox="0 0 87.188 46.477">
  <g id="noun_Arrow_3134100">
    <path id="Path_1" data-name="Path 1" d="M20.81,43.637a5.513,5.513,0,0,0,9.408,3.92L47.8,29.951a5.5,5.5,0,0,0,1.612-3.92c0-.064,0-.122,0-.181a5.488,5.488,0,0,0-1.607-4.077L30.213,4.21a5.513,5.513,0,0,0-7.791,7.8L36.289,25.874,22.422,39.741a5.5,5.5,0,0,0-1.612,3.9Z" transform="translate(-20.81 -2.692)" fill="#008fc4"/>
  </g>
  <g id="noun_Arrow_3134100-2" data-name="noun_Arrow_3134100" transform="translate(28.952)">
    <path id="Path_1-2" data-name="Path 1" d="M20.81,43.637a5.513,5.513,0,0,0,9.408,3.92L47.8,29.951a5.5,5.5,0,0,0,1.612-3.92c0-.064,0-.122,0-.181a5.488,5.488,0,0,0-1.607-4.077L30.213,4.21a5.513,5.513,0,0,0-7.791,7.8L36.289,25.874,22.422,39.741a5.5,5.5,0,0,0-1.612,3.9Z" transform="translate(-20.81 -2.692)" fill="#008fc4"/>
  </g>
  <g id="noun_Arrow_3134100-3" data-name="noun_Arrow_3134100" transform="translate(58.577)">
    <path id="Path_1-3" data-name="Path 1" d="M20.81,43.637a5.513,5.513,0,0,0,9.408,3.92L47.8,29.951a5.5,5.5,0,0,0,1.612-3.92c0-.064,0-.122,0-.181a5.488,5.488,0,0,0-1.607-4.077L30.213,4.21a5.513,5.513,0,0,0-7.791,7.8L36.289,25.874,22.422,39.741a5.5,5.5,0,0,0-1.612,3.9Z" transform="translate(-20.81 -2.692)" fill="#008fc4"/>
  </g>
</svg>
