<?xml version="1.0" encoding="iso-8859-1"?>
<svg version="1.1" id="Capa_1" xmlns="http://www.w3.org/2000/svg" xmlns:xlink="http://www.w3.org/1999/xlink" x="0px" y="0px"
	 viewBox="0 0 508 508" style="enable-background:new 0 0 508 508;" xml:space="preserve">
<g fill="blue">
	<g>
	<g>
		<path d="M465.77,445l-170.8-281.7V65.5h8.2c18.1,0,32.8-14.7,32.8-32.8c0-18.1-14.8-32.7-32.8-32.7h-98.3
			c-18.1,0-32.8,14.7-32.8,32.8c0,18.1,14.7,32.8,32.8,32.8h8.2v97.8L42.27,444.9c-8.2,12.8-8.8,28.4-1.5,41.8
			c7.3,13.4,20.7,21.3,36,21.3h354.5c15.2,0,28.7-8,36-21.3C474.47,473.3,473.97,457.7,465.77,445z M212.97,49.2h-8.2
			c-9,0-16.4-7.3-16.4-16.4c0-9.1,7.3-16.4,16.4-16.4h98.3c9,0,16.4,7.3,16.4,16.4c0,9.1-7.3,16.4-16.4,16.4h-8.1H212.97z
			 M229.37,167.9v-12.2h8.2v-16.4h-8.2v-16.4h8.2v-16.4h-8.2V90.1h8.2V73.7h-8.2v-8.2h49.2v102.4l97.5,160.7
			c-35.8,14.3-76.6,7.1-106-19.3c-30.9-27.7-72-37.1-110.3-26.6L229.37,167.9z M452.77,478.8c-4.4,8-12.4,12.8-21.6,12.8H76.67
			c-9.1,0-17.2-4.8-21.6-12.8c-4.4-8-4-17.4,1-25.3l89.9-148c37.4-18.4,81.5-12.3,113.1,16.1c22.5,20.2,50.9,30.8,79.5,30.8
			c15.6,0,31.2-3.3,46-9.6l67.3,110.9l0.1,0.2C456.87,461.4,457.17,470.8,452.77,478.8z"/>
	</g>
</g>
<g>
	<g>
		<path d="M163.87,385.1c-22.6,0-41,18.4-41,41c0,22.6,18.4,41,41,41c22.6,0,41-18.4,41-41C204.87,403.5,186.47,385.1,163.87,385.1z
			 M163.87,450.6c-13.6,0-24.6-11-24.6-24.6c0-13.6,11-24.6,24.6-24.6c13.6,0,24.6,11,24.6,24.6
			C188.47,439.6,177.37,450.6,163.87,450.6z"/>
	</g>
</g>
<g>
	<g>
		<path d="M229.37,335.9c-13.6,0-24.6,11-24.6,24.6c0,13.6,11,24.6,24.6,24.6c13.6,0,24.6-11,24.6-24.6
			C253.97,347,242.97,335.9,229.37,335.9z M229.37,368.7c-4.5,0-8.2-3.7-8.2-8.2s3.7-8.2,8.2-8.2s8.2,3.7,8.2,8.2
			C237.57,365,233.87,368.7,229.37,368.7z"/>
	</g>
</g>
</g>
</svg>
