<svg id="Capa_1" enable-background="new 0 0 512 512" height="512" viewBox="0 0 512 512" width="512" xmlns="http://www.w3.org/2000/svg"><g><g><path clip-rule="evenodd" d="m196.99 391.961h-49.181-40.445c-.879 0-1.758-.028-2.609-.085v52.893h184.471v-52.893c-.879.057-1.758.085-2.638.085h-40.445z" fill="#80b6ff" fill-rule="evenodd"/></g><g><path clip-rule="evenodd" d="m289.225 444.77h-184.47-25.754c-5.219 0-9.501 4.28-9.501 9.524v38.182c0 5.216 4.226 9.468 9.445 9.524h.057 235.948c5.247 0 9.501-4.28 9.501-9.524v-38.182c0-5.244-4.254-9.524-9.501-9.524z" fill="#ecf2f3" fill-rule="evenodd"/></g><g><g><path clip-rule="evenodd" d="m165.11 42.853c-17.528 0-31.88 14.343-31.88 31.861v47.876.113 52.156h63.759v-100.145c.001-17.518-14.35-31.861-31.879-31.861z" fill="#bfdbff" fill-rule="evenodd"/></g><g><path clip-rule="evenodd" d="m101.38 90.871c-17.528 0-31.88 14.315-31.88 31.832v52.156h63.731v-52.156-.113c-.057-17.461-14.38-31.719-31.851-31.719z" fill="#bfdbff" fill-rule="evenodd"/></g><g><path clip-rule="evenodd" d="m69.5 174.86h63.731v52.979h-63.731z" fill="#80b6ff" fill-rule="evenodd"/></g><g><path clip-rule="evenodd" d="m133.231 174.86h63.759v52.979h-63.759z" fill="#80b6ff" fill-rule="evenodd"/></g><g><path clip-rule="evenodd" d="m196.99 41.861v32.853 100.146h63.731v-100.146-32.853c0-17.518-14.352-31.861-31.88-31.861s-31.851 14.343-31.851 31.861z" fill="#bfdbff" fill-rule="evenodd"/></g><g><path clip-rule="evenodd" d="m196.99 174.86h63.731v52.979h-63.731z" fill="#80b6ff" fill-rule="evenodd"/></g><g><path clip-rule="evenodd" d="m260.721 74.714v100.146h63.731v-100.146c0-17.518-14.323-31.861-31.851-31.861s-31.88 14.343-31.88 31.861z" fill="#bfdbff" fill-rule="evenodd"/></g><g><path clip-rule="evenodd" d="m260.721 174.86h63.731v52.979h-63.731z" fill="#80b6ff" fill-rule="evenodd"/></g><g><path clip-rule="evenodd" d="m352.276 281.469h-27.824v70.496h34.177c11.6 0 21.924-5.868 28.107-14.768v-.028c3.829-5.499 6.07-12.16 6.07-19.332v-2.211c0-18.793-15.373-34.157-34.177-34.157z" fill="#80b6ff" fill-rule="evenodd"/></g><g><path clip-rule="evenodd" d="m196.99 227.838h-63.759-63.731v126.281c0 19.956 15.628 36.396 35.255 37.757.851.057 1.73.085 2.609.085h40.445 49.181 49.152 40.445c.879 0 1.758-.028 2.638-.085 19.599-1.361 35.226-17.801 35.226-37.757v-2.154-70.496-53.63h-63.731-63.73z" fill="#ecf2f3" fill-rule="evenodd"/></g><g><path clip-rule="evenodd" d="m431.379 289.236c33.581-36.084-16.479-80.587-49.776-41.839l-29.327 34.072h6.353c18.804 0 34.177 15.363 34.177 34.157v2.211c0 7.172-2.241 13.833-6.07 19.332z" fill="#bfdbff" fill-rule="evenodd"/></g><g><path d="m450.565 251.422c-4.618-14.373-16.752-25.175-31.666-28.189-16.089-3.257-32.45 3.178-44.878 17.642l-26.335 30.595h-13.236v-43.631-153.125c0-23.082-18.774-41.861-41.852-41.861-8.057 0-15.587 2.292-21.981 6.249-1.427-21.8-19.614-39.102-41.777-39.102-22.15 0-40.324 17.302-41.751 39.102-6.394-3.958-13.923-6.249-21.981-6.249-23.093 0-41.88 18.779-41.88 41.861v12.328c-6.365-3.911-13.848-6.171-21.851-6.171-23.093 0-41.88 18.766-41.88 41.832v105.135 126.281c0 22.018 14.963 40.598 35.255 46.145v34.506h-15.752c-10.753 0-19.502 8.759-19.502 19.524v38.182c0 10.765 8.749 19.524 19.502 19.524h73.062c5.522 0 10-4.478 10-10s-4.478-10-10-10h-72.564v-37.23h234.952v37.23h-72.535c-5.522 0-10 4.478-10 10s4.478 10 10 10h73.033c10.754 0 19.502-8.759 19.502-19.524v-38.182c0-10.766-8.748-19.524-19.502-19.524h-15.725v-34.514c17.815-4.881 31.508-19.811 34.572-38.291h24.831c14.784 0 27.886-7.3 35.909-18.472l44.161-47.445c12.382-13.304 16.708-29.569 11.869-44.626zm-243.577-33.584v-32.979h43.73v32.979zm-63.76 0v-32.979h43.76v32.979zm-63.73 0v-32.979h43.73v32.979zm191.221-32.979h43.731v32.979h-43.731zm21.879-132.006c12.049 0 21.852 9.807 21.852 21.861v90.146h-43.731v-90.146c0-12.055 9.815-21.861 21.879-21.861zm-85.61-10.993c0-12.054 9.803-21.86 21.852-21.86 12.064 0 21.879 9.807 21.879 21.86v122.999h-43.73v-122.999zm-63.76 32.854c0-12.055 9.815-21.861 21.88-21.861s21.88 9.807 21.88 21.861v90.146h-43.76zm-41.85 26.157c12.049 0 21.851 9.794 21.851 21.832v42.156h-43.73v-42.156c-.001-12.038 9.814-21.832 21.879-21.832zm13.375 333.899v-32.809h164.471v32.809zm199.697-80.651c0 15.352-12.5 27.842-27.864 27.842h-30.446v-47.41l26.938-6.217c4.645-.967 8.046-5.246 7.947-9.99v-30.384c0-5.522-4.478-10-10-10s-10 4.478-10 10v22.63l-26.938 6.217c-4.647.966-8.047 5.246-7.948 9.99v55.164h-29.152v-96.184c0-5.522-4.478-10-10-10s-10 4.478-10 10v96.184h-29.181v-55.163c.103-4.739-3.308-9.021-7.945-9.991l-26.913-6.216v-22.631c0-5.522-4.478-10-10-10s-10 4.478-10 10v30.383c-.103 4.744 3.303 9.022 7.945 9.991l26.913 6.216v47.411h-30.445c-15.364 0-27.864-12.49-27.864-27.842v-116.281h234.953zm44.177-12.154h-24.177v-50.496h24.177c9.895 0 19.012 6.271 22.572 15.502 1.559 4.041 1.868 8.481 1.529 12.775-.459 5.814-3.089 11.333-7.272 15.39-4.486 4.35-10.579 6.829-16.829 6.829zm65.429-59.543-22.248 23.902c-3.325-15.437-14.744-27.895-29.584-32.706l16.96-19.703c7.688-8.946 16.83-12.883 25.752-11.079 7.707 1.558 14.218 7.33 16.588 14.705 2.597 8.08-.055 16.917-7.468 24.881z"/><path d="m196.988 492c-5.522 0-10 4.478-10 10s4.478 10 10 10h.028c5.522 0 9.986-4.478 9.986-10s-4.492-10-10.014-10z"/></g></g></g></svg>