<?xml version="1.0" encoding="iso-8859-1"?>
<svg version="1.1" id="Capa_1" xmlns="http://www.w3.org/2000/svg" xmlns:xlink="http://www.w3.org/1999/xlink" x="0px" y="0px"
	 viewBox="0 0 508 508" style="enable-background:new 0 0 508 508;" xml:space="preserve">
<g>
	<g>
		<path d="M393.4,73.7H336c0-22.6-18.4-41-41-41h-0.8C290.3,14.1,273.8,0,254,0s-36.3,14.1-40.1,32.8H213c-22.6,0-41,18.4-41,41
			h-57.4c-22.6,0-41,18.4-41,41V467c0,22.6,18.4,41,41,41h278.8c22.6,0,41-18.4,41-41V114.7C434.3,92.1,416,73.7,393.4,73.7z
			 M188.5,73.7c0-13.6,11-24.6,24.6-24.6h16.4V41c0-13.6,11-24.6,24.6-24.6c13.6,0,24.6,11,24.6,24.6v8.2H295
			c13.6,0,24.6,11,24.6,24.6v24.6H188.5V73.7z M393.4,491.6H114.6c-13.6,0-24.6-11-24.6-24.6V114.7c0-13.6,11-24.6,24.6-24.6H172
			v24.6h163.9V90.1h57.4c13.6,0,24.6,11,24.6,24.6V467h0.1C418,480.6,407,491.6,393.4,491.6z"/>
	</g>
</g>
<g>
	<g>
		<rect x="245.8" y="65.5" width="16.4" height="16.4"/>
	</g>
</g>
<g>
	<g>
		<rect x="213" y="65.5" width="16.4" height="16.4"/>
	</g>
</g>
<g>
	<g>
		<rect x="278.6" y="65.5" width="16.4" height="16.4"/>
	</g>
</g>
<g>
	<g>
		<path d="M179.6,192.5l22.9-22.9c3.2-3.2,3.2-8.4,0-11.6s-8.4-3.2-11.6,0L168,181l-22.9-22.9c-3.2-3.2-8.4-3.2-11.6,0
			c-3.2,3.2-3.2,8.4,0,11.6l22.9,22.9l-22.9,22.9c-3.2,3.1-3.2,8.3,0,11.5c1.6,1.6,3.7,2.4,5.8,2.4c2.1,0,4.2-0.8,5.8-2.4l22.9-22.9
			l22.9,22.9c1.6,1.6,3.7,2.4,5.8,2.4c2.1,0,4.2-0.8,5.8-2.4c3.2-3.2,3.2-8.4,0-11.6L179.6,192.5z"/>
	</g>
</g>
<g>
	<g>
		<path d="M333.5,239.8l-33-33c-3.2-3.2-8.4-3.2-11.6,0s-3.2,8.4,0,11.6l19.9,19.9c-99.4,8-177.8,91.4-177.8,192.8
			c0,4.5,3.7,8.2,8.2,8.2s8.2-3.7,8.2-8.2c0-91.7,70-167.3,159.4-176.2l-18.5,18.5c-3.2,3.2-3.2,8.4,0,11.6c1.6,1.6,3.7,2.4,5.8,2.4
			s4.2-0.8,5.8-2.4l33.6-33.6C336.7,248.2,336.7,243,333.5,239.8z"/>
	</g>
</g>
<g>
	<g>
		<path d="M327.7,344.1c-22.6,0-41,18.4-41,41c0,22.6,18.4,41,41,41c22.6,0,41-18.4,41-41C368.7,362.5,350.3,344.1,327.7,344.1z
			 M327.7,409.7c-13.6,0-24.6-11-24.6-24.6c0-13.6,11-24.6,24.6-24.6c13.6,0,24.6,11,24.6,24.6C352.3,398.7,341.3,409.7,327.7,409.7
			z"/>
	</g>
</g>
</svg>
