<svg xmlns="http://www.w3.org/2000/svg" width="131" height="131" viewBox="0 0 131 131">
  <circle id="Ellipse_1" data-name="Ellipse 1" cx="65.5" cy="65.5" r="65.5" fill="#008fc4"/>
  <path id="Path_9" data-name="Path 9" d="M46.323,84.43a1.523,1.523,0,0,0,0,3.046H53.36v5.331a7.618,7.618,0,0,0,7.615,7.615h5.483v7.189a1.523,1.523,0,0,0,3.046,0v-7.189H84.43v7.189a1.523,1.523,0,1,0,3.046,0v-7.189h5.331a7.618,7.618,0,0,0,7.615-7.615V87.476h7.189a1.523,1.523,0,0,0,0-3.046h-7.189V69.5h7.189a1.523,1.523,0,0,0,0-3.046h-7.189V60.975a7.618,7.618,0,0,0-7.615-7.615H87.476V46.323a1.523,1.523,0,0,0-3.046,0V53.36H69.5V46.323a1.523,1.523,0,0,0-3.046,0V53.36H60.975a7.618,7.618,0,0,0-7.615,7.615v5.483H46.323a1.523,1.523,0,0,0,0,3.046H53.36V84.43ZM65.7,67.219A1.528,1.528,0,0,1,67.219,65.7H86.714a1.528,1.528,0,0,1,1.523,1.523V86.714a1.528,1.528,0,0,1-1.523,1.523H67.219A1.528,1.528,0,0,1,65.7,86.714Z" transform="translate(-12.133 -11.667)" fill="#fff"/>
  <rect id="Rectangle_8" data-name="Rectangle 8" width="16.449" height="16.449" transform="translate(56.609 57.076)" fill="#fff"/>
</svg>
