<svg xmlns="http://www.w3.org/2000/svg" width="131" height="131" viewBox="0 0 131 131">
  <circle id="Ellipse_2" data-name="Ellipse 2" cx="65.5" cy="65.5" r="65.5" fill="#008fc4"/>
  <path id="Path_12" data-name="Path 12" d="M4.75,0h58.5A4.769,4.769,0,0,1,68,4.75v6.384a4.762,4.762,0,0,1-4.75,4.75H63.2V48.291a2.18,2.18,0,0,1-2.179,2.179H6.981A2.18,2.18,0,0,1,4.8,48.291V15.885H4.75A4.769,4.769,0,0,1,0,11.135V4.75A4.762,4.762,0,0,1,4.75,0ZM28.013,15.885v9.332H39.987V15.885H28.013ZM63.25,4.357H4.75a.391.391,0,0,0-.393.393v6.384a.4.4,0,0,0,.393.393h58.5a.391.391,0,0,0,.393-.393V4.75a.4.4,0,0,0-.393-.393Z" transform="translate(31.667 40.071)" fill="#fff"/>
</svg>
