<svg xmlns="http://www.w3.org/2000/svg" width="131" height="131" viewBox="0 0 131 131">
  <circle id="Ellipse_3" data-name="Ellipse 3" cx="65.5" cy="65.5" r="65.5" fill="#008fc4"/>
  <path id="Path_2" data-name="Path 2" d="M51.247,47.8a27.416,27.416,0,0,0,5.5-14.893,8.8,8.8,0,0,1-6.59,4.229,21.831,21.831,0,1,1-5.568-21.375,22.023,22.023,0,0,1,3.108,3.943,8.338,8.338,0,0,1,2.538-.078l2.736-2.459a27.9,27.9,0,0,0-4.256-5.531A27.664,27.664,0,0,0,9.588,50.762,27.6,27.6,0,0,0,45.755,53.3l13.1,13.1a3.886,3.886,0,1,0,5.5-5.5Z" transform="translate(30.921 30.465)" fill="#fff"/>
  <path id="Path_3" data-name="Path 3" d="M61.1,4.873A4.891,4.891,0,0,0,56.432,11.4L43.892,22.662a4.885,4.885,0,0,0-5.512.927l-9.278-3.9a4.945,4.945,0,1,0-8.958,2.906l-5.2,8.569a4.689,4.689,0,0,0-.686-.07,4.974,4.974,0,1,0,4.015,2.074l5.2-8.573a4.662,4.662,0,0,0,.684.07,4.915,4.915,0,0,0,3.434-1.4l9.278,3.9a4.947,4.947,0,1,0,9.611-1.611L59.017,14.3A4.941,4.941,0,1,0,61.1,4.873Z" transform="translate(38.293 31.727)" fill="#fff"/>
</svg>
