<svg xmlns="http://www.w3.org/2000/svg" width="131" height="131" viewBox="0 0 131 131">
  <circle id="Ellipse_4" data-name="Ellipse 4" cx="65.5" cy="65.5" r="65.5" fill="#008fc4"/>
  <path id="Path_4" data-name="Path 4" d="M46.893,45.225a7.3,7.3,0,0,0,5.751-11.782l11.15-11.15a7.254,7.254,0,1,0-2.455-5.4,6.809,6.809,0,0,0,.491,2.595L49.979,31.34a6.845,6.845,0,0,0-3.086-.7,7.293,7.293,0,1,0,0,14.587Z" transform="translate(18.74 26.4)" fill="#fff"/>
  <path id="Path_5" data-name="Path 5" d="M46.893,24.187A7.293,7.293,0,1,0,39.6,16.893,7.333,7.333,0,0,0,46.893,24.187Z" transform="translate(18.74 26.4)" fill="#fff"/>
  <path id="Path_6" data-name="Path 6" d="M77.893,39.6a7.293,7.293,0,1,0,7.293,7.293A7.333,7.333,0,0,0,77.893,39.6Z" transform="translate(9.48 17.439)" fill="#fff"/>
  <path id="Path_7" data-name="Path 7" d="M15.893,69.6a7.293,7.293,0,1,0,7.293,7.293A7.333,7.333,0,0,0,15.893,69.6Z" transform="translate(28 8.477)" fill="#fff"/>
  <path id="Path_8" data-name="Path 8" d="M59.373,51.677a7.274,7.274,0,0,0-7.083,5.61H44.716a7.274,7.274,0,0,0-7.083-5.61,7.126,7.126,0,0,0-5.4,2.455L21.013,43.051a7.462,7.462,0,0,0,2.1-5.119,7.274,7.274,0,0,0-5.61-7.083V23.976a7.258,7.258,0,1,0-3.3,0v6.873a7.286,7.286,0,0,0,1.683,14.376,7.9,7.9,0,0,0,2.244-.351L30.55,57.288a7.489,7.489,0,0,0-.21,1.753,7.286,7.286,0,0,0,14.376,1.683H52.29a7.286,7.286,0,0,0,14.376-1.683A7.394,7.394,0,0,0,59.373,51.677Z" transform="translate(28 26.4)" fill="#fff"/>
</svg>
