<svg xmlns="http://www.w3.org/2000/svg" width="131" height="131" viewBox="0 0 131 131">
  <circle id="Ellipse_5" data-name="Ellipse 5" cx="65.5" cy="65.5" r="65.5" fill="#008fc4"/>
  <path id="Path_10" data-name="Path 10" d="M69.018,10.1H7.791A5.259,5.259,0,0,0,2.5,15.391V65.129A5.259,5.259,0,0,0,7.791,70.42H68.943a5.259,5.259,0,0,0,5.291-5.291V15.391A5.2,5.2,0,0,0,69.018,10.1ZM25.177,15.542a2.268,2.268,0,1,1-2.268,2.268A2.227,2.227,0,0,1,25.177,15.542Zm-6.954,0a2.268,2.268,0,1,1-2.268,2.268A2.274,2.274,0,0,1,18.222,15.542Zm-6.954,0A2.268,2.268,0,1,1,9,17.81,2.274,2.274,0,0,1,11.268,15.542ZM69.4,65.129a.357.357,0,0,1-.378.378H7.791a.357.357,0,0,1-.378-.378V25.6H69.4Z" transform="translate(27.167 25.38)" fill="#fff"/>
  <path id="Path_11" data-name="Path 11" d="M31.683,55.688H33.95a9.032,9.032,0,0,0,1.134,2.646L33.5,59.921a.958.958,0,0,0,0,1.361L36.52,64.3a.958.958,0,0,0,1.361,0l1.587-1.587a11.386,11.386,0,0,0,2.646,1.058v2.268a1,1,0,0,0,.983.983h4.309a1,1,0,0,0,.983-.983V63.776a9.032,9.032,0,0,0,2.646-1.134l1.587,1.587a.958.958,0,0,0,1.361,0L57,61.206a.958.958,0,0,0,0-1.361l-1.587-1.587a11.386,11.386,0,0,0,1.058-2.646h2.268a1,1,0,0,0,.983-.983V50.321a1,1,0,0,0-.983-.983H56.476a9.032,9.032,0,0,0-1.134-2.646l1.587-1.587a.958.958,0,0,0,0-1.361l-3.024-3.024a.958.958,0,0,0-1.361,0l-1.587,1.587a11.387,11.387,0,0,0-2.646-1.058V38.983A1,1,0,0,0,47.33,38H43.021a1,1,0,0,0-.983.983V41.25a9.032,9.032,0,0,0-2.646,1.134L37.805,40.8a.958.958,0,0,0-1.361,0L33.421,43.82a.958.958,0,0,0,0,1.361l1.587,1.587a11.386,11.386,0,0,0-1.058,2.646H31.683a1,1,0,0,0-.983.983v4.309A1,1,0,0,0,31.683,55.688ZM45.289,47a5.518,5.518,0,1,1-5.518,5.518A5.5,5.5,0,0,1,45.289,47Z" transform="translate(20.283 18.569)" fill="#fff"/>
</svg>
