<?xml version="1.0" encoding="iso-8859-1"?>
<svg version="1.1" id="Capa_1" xmlns="http://www.w3.org/2000/svg" xmlns:xlink="http://www.w3.org/1999/xlink" x="0px" y="0px"
	 viewBox="0 0 508 508" style="enable-background:new 0 0 508 508;" xml:space="preserve">
<g fill="blue">
	<g>
		<path d="M505.9,147.5h-66.8l-16.4,41h-27.4C390.9,83.8,304.5,0,198.8,0C90.4,0,2.1,88.2,2.1,196.6c0,65.6,32.4,123.8,81.9,159.6
			V508h16.4v-41H297v41h16.4V356.2c47.5-34.2,79.2-89.1,81.7-151.4h27.4l16.4,41h66.8L486,196.6L505.9,147.5z M297.1,450.6H100.5
			v-83.8c28.9,16.8,62.5,26.5,98.3,26.5c35.8,0,69.4-9.7,98.3-26.5V450.6z M230.4,204.8c-3.7,14.1-16.4,24.6-31.6,24.6
			c-18.1,0-32.8-14.7-32.8-32.8c0-18.1,14.7-32.8,32.8-32.8c15.2,0,27.9,10.5,31.6,24.6h-31.6v16.4H230.4z M198.8,147.5
			c-27.1,0-49.2,22.1-49.2,49.2c0,27.1,22.1,49.2,49.2,49.2c24.3,0,44.5-17.8,48.4-41h33.1c-4.1,41.3-39.1,73.7-81.5,73.7
			c-45.2,0-81.9-36.8-81.9-81.9c0-45.1,36.8-81.9,81.9-81.9c42.4,0,77.4,32.4,81.5,73.7h-33.1v0
			C243.3,165.3,223.1,147.5,198.8,147.5z M198.8,98.4c-54.2,0-98.3,44.1-98.3,98.3s44.1,98.3,98.3,98.3c51.5,0,93.7-39.7,97.9-90.1
			h32.8c-4.3,68.5-61.2,122.9-130.7,122.9c-72.3,0-131.1-58.8-131.1-131.1S126.5,65.5,198.8,65.5c69.5,0,126.4,54.4,130.7,122.9
			h-32.8v0.1C292.5,138.1,250.2,98.4,198.8,98.4z M198.8,49.2c-81.3,0-147.5,66.2-147.5,147.5s66.2,147.5,147.5,147.5
			c78.6,0,142.8-61.8,147.1-139.3h33c-4.4,95.5-83.5,172-180.1,172c-99.4,0-180.3-80.9-180.3-180.3S99.4,16.4,198.8,16.4
			c96.6,0,175.7,76.5,180.1,172.1h-33C341.6,111,277.4,49.2,198.8,49.2z M450.2,229.4L437,196.6l13.1-32.8h31.5l-13.1,32.8
			l13.2,32.8H450.2z"/>
	</g>
</g>
</svg>
